<svg xmlns="http://www.w3.org/2000/svg" width="32px" height="32px"  viewBox="0 0 24 24"><path d="M18.074,18.495H6.709c-1.637,0-3.17-0.88-4.002-2.296c-0.869-1.479-0.851-3.255,0.051-4.871
                c0.738-1.327,2.188-2.137,3.765-2.123c0.619-2.162,2.633-3.7,4.917-3.7c2.311,0,4.29,1.505,4.915,3.694
                c0.911,0.004,1.917,0.43,2.37,1.624c1.84,0.312,3.208,1.915,3.208,3.802C21.932,16.759,20.201,18.495,18.074,18.495z M6.531,10.21
                c-1.257,0-2.348,0.613-2.899,1.604c-0.724,1.299-0.747,2.713-0.062,3.879c0.653,1.111,1.856,1.802,3.14,1.802h11.364
                c1.576,0,2.858-1.287,2.858-2.87c0-1.445-1.083-2.665-2.52-2.837c-0.274-0.035-0.5-0.226-0.58-0.485
                c-0.333-1.068-1.199-1.144-1.69-1.093l-0.004,0.001c-0.315,0.033-0.612-0.183-0.684-0.496c-0.422-1.891-2.073-3.21-4.015-3.21
                c-1.935,0-3.627,1.369-4.025,3.257c-0.063,0.288-0.328,0.481-0.612,0.458C6.711,10.213,6.62,10.21,6.531,10.21z M18.787,11.005
                c0,0.001,0,0.002,0.001,0.003C18.787,11.007,18.787,11.006,18.787,11.005z M6.78,9.216c0,0,0.001,0,0.001,0
                C6.781,9.216,6.78,9.216,6.78,9.216z"/></svg>